<?xml version="1.0" encoding="UTF-8"?>
<svg xmlns="http://www.w3.org/2000/svg" xmlns:xlink="http://www.w3.org/1999/xlink" width="198pt" height="104pt" viewBox="0 0 198 104" version="1.1">
<g id="surface1">
<path style=" stroke:none;fill-rule:evenodd;fill:rgb(13.699341%,12.199402%,12.5%);fill-opacity:1;" d="M 20.941406 72.632813 L 25.894531 72.632813 L 25.621094 73.550781 L 22.035156 73.550781 L 22.035156 76.277344 L 25.214844 76.277344 L 25.214844 77.21875 L 22.035156 77.21875 L 22.035156 80.855469 L 20.941406 80.855469 Z M 26.46875 75.164063 L 27.421875 75.164063 L 27.421875 78.667969 C 27.421875 79.238281 27.515625 79.652344 27.707031 79.90625 C 27.894531 80.164063 28.199219 80.289063 28.621094 80.289063 C 29.105469 80.289063 29.5 80.117188 29.792969 79.769531 C 30.085938 79.421875 30.230469 78.960938 30.230469 78.386719 L 30.230469 75.164063 L 31.171875 75.164063 L 31.171875 80.855469 L 30.230469 80.855469 L 30.230469 79.742188 C 30.011719 80.175781 29.738281 80.492188 29.421875 80.703125 C 29.101563 80.910156 28.726563 81.015625 28.292969 81.015625 C 27.683594 81.015625 27.230469 80.835938 26.925781 80.476563 C 26.621094 80.117188 26.46875 79.578125 26.46875 78.859375 Z M 37.855469 77.144531 L 37.855469 80.855469 L 36.917969 80.855469 L 36.917969 77.339844 C 36.917969 76.769531 36.824219 76.355469 36.636719 76.097656 C 36.449219 75.84375 36.148438 75.71875 35.726563 75.71875 C 35.238281 75.71875 34.84375 75.890625 34.546875 76.234375 C 34.253906 76.582031 34.105469 77.042969 34.105469 77.621094 L 34.105469 80.855469 L 33.164063 80.855469 L 33.164063 75.164063 L 34.105469 75.164063 L 34.105469 76.265625 C 34.320313 75.835938 34.59375 75.515625 34.914063 75.308594 C 35.234375 75.097656 35.609375 74.992188 36.042969 74.992188 C 36.648438 74.992188 37.105469 75.171875 37.40625 75.527344 C 37.707031 75.886719 37.855469 76.425781 37.855469 77.144531 Z M 41.925781 80.289063 C 42.097656 80.289063 42.261719 80.257813 42.417969 80.195313 C 42.574219 80.132813 42.71875 80.042969 42.84375 79.925781 C 43.074219 79.714844 43.234375 79.480469 43.328125 79.21875 C 43.421875 78.957031 43.46875 78.554688 43.46875 78.007813 C 43.46875 77.464844 43.425781 77.0625 43.332031 76.800781 C 43.238281 76.539063 43.082031 76.304688 42.855469 76.09375 C 42.726563 75.976563 42.582031 75.886719 42.421875 75.824219 C 42.261719 75.761719 42.097656 75.730469 41.925781 75.730469 C 41.4375 75.730469 41.050781 75.929688 40.769531 76.332031 C 40.488281 76.734375 40.347656 77.292969 40.347656 78.007813 C 40.347656 78.722656 40.492188 79.277344 40.773438 79.683594 C 41.054688 80.085938 41.441406 80.289063 41.925781 80.289063 Z M 43.46875 79.890625 C 43.230469 80.269531 42.957031 80.554688 42.65625 80.738281 C 42.351563 80.921875 42.007813 81.015625 41.621094 81.015625 C 40.914063 81.015625 40.355469 80.75 39.949219 80.214844 C 39.542969 79.679688 39.34375 78.945313 39.34375 78.007813 C 39.34375 77.074219 39.546875 76.339844 39.953125 75.804688 C 40.359375 75.273438 40.917969 75.003906 41.621094 75.003906 C 42.007813 75.003906 42.351563 75.097656 42.65625 75.28125 C 42.957031 75.464844 43.230469 75.746094 43.46875 76.128906 L 43.46875 72.632813 L 44.421875 72.632813 L 44.421875 80.855469 L 43.46875 80.855469 Z M 49.582031 77.476563 C 49.304688 77.613281 48.9375 77.734375 48.488281 77.835938 C 48.035156 77.941406 47.746094 78.015625 47.617188 78.0625 C 47.355469 78.160156 47.160156 78.300781 47.023438 78.488281 C 46.890625 78.675781 46.828125 78.90625 46.828125 79.1875 C 46.828125 79.53125 46.921875 79.796875 47.113281 79.984375 C 47.304688 80.171875 47.578125 80.265625 47.925781 80.265625 C 48.410156 80.265625 48.808594 80.121094 49.117188 79.832031 C 49.425781 79.539063 49.582031 79.160156 49.582031 78.699219 Z M 50.523438 76.992188 L 50.523438 79.402344 C 50.523438 79.730469 50.558594 79.945313 50.625 80.046875 C 50.695313 80.152344 50.820313 80.207031 51 80.207031 C 51.042969 80.207031 51.074219 80.203125 51.101563 80.203125 C 51.125 80.203125 51.148438 80.199219 51.164063 80.195313 L 51.164063 80.898438 C 51.066406 80.9375 50.96875 80.960938 50.878906 80.980469 C 50.785156 80.996094 50.695313 81.003906 50.601563 81.003906 C 50.296875 81.003906 50.066406 80.917969 49.898438 80.746094 C 49.730469 80.574219 49.636719 80.316406 49.617188 79.980469 C 49.324219 80.335938 49.027344 80.597656 48.726563 80.765625 C 48.421875 80.933594 48.09375 81.015625 47.734375 81.015625 C 47.175781 81.015625 46.730469 80.851563 46.398438 80.527344 C 46.0625 80.203125 45.898438 79.773438 45.898438 79.230469 C 45.898438 78.773438 46.03125 78.394531 46.296875 78.09375 C 46.566406 77.792969 46.964844 77.574219 47.503906 77.433594 C 47.640625 77.394531 47.851563 77.355469 48.132813 77.304688 C 48.789063 77.1875 49.273438 77.039063 49.582031 76.863281 C 49.585938 76.839844 49.589844 76.820313 49.589844 76.796875 C 49.59375 76.773438 49.59375 76.738281 49.59375 76.691406 C 49.59375 76.371094 49.492188 76.125 49.285156 75.949219 C 49.082031 75.773438 48.796875 75.683594 48.4375 75.683594 C 48.058594 75.683594 47.746094 75.761719 47.488281 75.914063 C 47.230469 76.066406 47.015625 76.308594 46.835938 76.636719 L 46.136719 76.265625 C 46.382813 75.824219 46.695313 75.507813 47.074219 75.304688 C 47.457031 75.101563 47.933594 75.003906 48.515625 75.003906 C 49.207031 75.003906 49.71875 75.160156 50.039063 75.480469 C 50.363281 75.796875 50.523438 76.300781 50.523438 76.992188 Z M 56.960938 76.546875 L 56.15625 76.953125 C 56.003906 76.546875 55.800781 76.246094 55.558594 76.050781 C 55.3125 75.851563 55.015625 75.75 54.667969 75.75 C 54.167969 75.75 53.765625 75.953125 53.464844 76.359375 C 53.164063 76.765625 53.015625 77.316406 53.015625 78.007813 C 53.015625 78.699219 53.164063 79.25 53.464844 79.65625 C 53.765625 80.0625 54.167969 80.265625 54.667969 80.265625 C 55.007813 80.265625 55.304688 80.164063 55.550781 79.964844 C 55.800781 79.761719 56.003906 79.460938 56.15625 79.0625 L 56.960938 79.460938 C 56.726563 79.976563 56.417969 80.363281 56.027344 80.625 C 55.636719 80.886719 55.164063 81.015625 54.613281 81.015625 C 53.84375 81.015625 53.21875 80.734375 52.738281 80.175781 C 52.257813 79.617188 52.019531 78.882813 52.019531 77.976563 C 52.019531 77.089844 52.261719 76.371094 52.742188 75.824219 C 53.226563 75.277344 53.859375 75.003906 54.636719 75.003906 C 55.175781 75.003906 55.640625 75.132813 56.039063 75.398438 C 56.433594 75.660156 56.742188 76.042969 56.960938 76.546875 Z M 54.273438 80.855469 L 54.671875 80.855469 L 54.671875 81.441406 L 54.785156 81.441406 C 55.175781 81.441406 55.472656 81.523438 55.675781 81.679688 C 55.882813 81.835938 55.984375 82.0625 55.984375 82.359375 C 55.984375 82.695313 55.875 82.957031 55.664063 83.136719 C 55.449219 83.316406 55.140625 83.40625 54.738281 83.40625 C 54.53125 83.40625 54.308594 83.390625 54.078125 83.359375 C 53.847656 83.324219 53.601563 83.273438 53.34375 83.203125 L 53.34375 82.714844 C 53.597656 82.777344 53.835938 82.824219 54.054688 82.859375 C 54.269531 82.890625 54.46875 82.910156 54.640625 82.910156 C 54.890625 82.910156 55.074219 82.867188 55.195313 82.789063 C 55.316406 82.710938 55.375 82.585938 55.375 82.421875 C 55.375 82.238281 55.308594 82.105469 55.171875 82.015625 C 55.035156 81.929688 54.824219 81.886719 54.546875 81.886719 C 54.46875 81.886719 54.414063 81.886719 54.378906 81.886719 C 54.34375 81.886719 54.308594 81.890625 54.273438 81.894531 Z M 61.609375 77.476563 C 61.332031 77.613281 60.964844 77.734375 60.515625 77.835938 C 60.066406 77.941406 59.773438 78.015625 59.644531 78.0625 C 59.382813 78.160156 59.1875 78.300781 59.050781 78.488281 C 58.921875 78.675781 58.855469 78.90625 58.855469 79.1875 C 58.855469 79.53125 58.949219 79.796875 59.140625 79.984375 C 59.335938 80.171875 59.605469 80.265625 59.957031 80.265625 C 60.441406 80.265625 60.835938 80.121094 61.144531 79.832031 C 61.457031 79.539063 61.609375 79.160156 61.609375 78.699219 Z M 62.550781 76.992188 L 62.550781 79.402344 C 62.550781 79.730469 62.585938 79.945313 62.652344 80.046875 C 62.722656 80.152344 62.847656 80.207031 63.027344 80.207031 C 63.070313 80.207031 63.101563 80.203125 63.128906 80.203125 C 63.15625 80.203125 63.175781 80.199219 63.195313 80.195313 L 63.195313 80.898438 C 63.09375 80.9375 62.996094 80.960938 62.90625 80.980469 C 62.8125 80.996094 62.722656 81.003906 62.628906 81.003906 C 62.328125 81.003906 62.09375 80.917969 61.925781 80.746094 C 61.761719 80.574219 61.664063 80.316406 61.644531 79.980469 C 61.351563 80.335938 61.054688 80.597656 60.753906 80.765625 C 60.449219 80.933594 60.121094 81.015625 59.761719 81.015625 C 59.207031 81.015625 58.761719 80.851563 58.425781 80.527344 C 58.089844 80.203125 57.925781 79.773438 57.925781 79.230469 C 57.925781 78.773438 58.058594 78.394531 58.324219 78.09375 C 58.59375 77.792969 58.992188 77.574219 59.53125 77.433594 C 59.671875 77.394531 59.878906 77.355469 60.160156 77.304688 C 60.816406 77.1875 61.300781 77.039063 61.609375 76.863281 C 61.613281 76.839844 61.617188 76.820313 61.617188 76.796875 C 61.621094 76.773438 61.621094 76.738281 61.621094 76.691406 C 61.621094 76.371094 61.519531 76.125 61.3125 75.949219 C 61.109375 75.773438 60.828125 75.683594 60.464844 75.683594 C 60.089844 75.683594 59.773438 75.761719 59.515625 75.914063 C 59.257813 76.066406 59.042969 76.308594 58.867188 76.636719 L 58.164063 76.265625 C 58.410156 75.824219 58.722656 75.507813 59.101563 75.304688 C 59.484375 75.101563 59.964844 75.003906 60.542969 75.003906 C 61.238281 75.003906 61.746094 75.160156 62.066406 75.480469 C 62.390625 75.796875 62.550781 76.300781 62.550781 76.992188 Z M 61.632813 72.894531 L 62.085938 72.894531 C 61.992188 73.261719 61.863281 73.535156 61.691406 73.710938 C 61.523438 73.886719 61.304688 73.972656 61.039063 73.972656 C 60.964844 73.972656 60.898438 73.96875 60.835938 73.960938 C 60.777344 73.953125 60.714844 73.9375 60.65625 73.917969 L 60.164063 73.769531 C 60.09375 73.75 60.035156 73.738281 59.988281 73.726563 C 59.9375 73.71875 59.898438 73.714844 59.859375 73.714844 C 59.742188 73.714844 59.640625 73.746094 59.554688 73.804688 C 59.46875 73.867188 59.398438 73.960938 59.339844 74.085938 L 58.875 74.085938 C 58.960938 73.734375 59.089844 73.472656 59.261719 73.300781 C 59.429688 73.128906 59.648438 73.042969 59.910156 73.042969 C 59.972656 73.042969 60.035156 73.050781 60.101563 73.0625 C 60.164063 73.074219 60.238281 73.085938 60.316406 73.109375 L 60.800781 73.261719 C 60.847656 73.273438 60.898438 73.285156 60.945313 73.292969 C 60.992188 73.300781 61.042969 73.304688 61.101563 73.304688 C 61.214844 73.304688 61.316406 73.269531 61.40625 73.199219 C 61.496094 73.128906 61.574219 73.027344 61.632813 72.894531 Z M 66.707031 75.75 C 66.191406 75.75 65.785156 75.953125 65.488281 76.355469 C 65.191406 76.757813 65.042969 77.308594 65.042969 78.007813 C 65.042969 78.714844 65.191406 79.265625 65.484375 79.660156 C 65.78125 80.054688 66.1875 80.253906 66.707031 80.253906 C 67.21875 80.253906 67.625 80.054688 67.921875 79.65625 C 68.214844 79.257813 68.363281 78.707031 68.363281 78.007813 C 68.363281 77.308594 68.214844 76.757813 67.921875 76.355469 C 67.625 75.953125 67.21875 75.75 66.707031 75.75 Z M 66.707031 75.003906 C 67.503906 75.003906 68.144531 75.277344 68.636719 75.832031 C 69.128906 76.386719 69.375 77.113281 69.375 78.007813 C 69.375 78.902344 69.128906 79.628906 68.632813 80.183594 C 68.140625 80.738281 67.496094 81.015625 66.707031 81.015625 C 65.917969 81.015625 65.277344 80.738281 64.785156 80.183594 C 64.292969 79.628906 64.046875 78.90625 64.046875 78.007813 C 64.046875 77.105469 64.292969 76.378906 64.78125 75.828125 C 65.273438 75.277344 65.914063 75.003906 66.707031 75.003906 Z M 75.835938 80.289063 C 76.007813 80.289063 76.167969 80.257813 76.324219 80.195313 C 76.480469 80.132813 76.625 80.042969 76.753906 79.925781 C 76.984375 79.714844 77.144531 79.480469 77.238281 79.21875 C 77.332031 78.957031 77.378906 78.554688 77.378906 78.007813 C 77.378906 77.464844 77.335938 77.0625 77.242188 76.800781 C 77.148438 76.539063 76.992188 76.304688 76.765625 76.09375 C 76.636719 75.976563 76.492188 75.886719 76.332031 75.824219 C 76.171875 75.761719 76.007813 75.730469 75.835938 75.730469 C 75.34375 75.730469 74.960938 75.929688 74.679688 76.332031 C 74.398438 76.734375 74.257813 77.292969 74.257813 78.007813 C 74.257813 78.722656 74.402344 79.277344 74.679688 79.683594 C 74.964844 80.085938 75.347656 80.289063 75.835938 80.289063 Z M 77.378906 79.890625 C 77.140625 80.269531 76.867188 80.554688 76.5625 80.738281 C 76.257813 80.921875 75.914063 81.015625 75.53125 81.015625 C 74.824219 81.015625 74.265625 80.75 73.859375 80.214844 C 73.453125 79.679688 73.25 78.945313 73.25 78.007813 C 73.25 77.074219 73.457031 76.339844 73.863281 75.804688 C 74.269531 75.273438 74.828125 75.003906 75.53125 75.003906 C 75.914063 75.003906 76.257813 75.097656 76.5625 75.28125 C 76.867188 75.464844 77.140625 75.746094 77.378906 76.128906 L 77.378906 72.632813 L 78.332031 72.632813 L 78.332031 80.855469 L 77.378906 80.855469 Z M 84.792969 78.289063 L 80.777344 78.289063 C 80.777344 78.933594 80.921875 79.421875 81.207031 79.753906 C 81.488281 80.085938 81.902344 80.253906 82.445313 80.253906 C 82.78125 80.253906 83.066406 80.171875 83.300781 80.007813 C 83.53125 79.847656 83.746094 79.578125 83.949219 79.210938 L 84.640625 79.621094 C 84.398438 80.101563 84.09375 80.453125 83.726563 80.675781 C 83.355469 80.902344 82.898438 81.015625 82.347656 81.015625 C 81.535156 81.015625 80.90625 80.753906 80.460938 80.230469 C 80.019531 79.710938 79.792969 78.96875 79.792969 78.007813 C 79.792969 77.078125 80.019531 76.347656 80.460938 75.808594 C 80.90625 75.273438 81.511719 75.003906 82.28125 75.003906 C 83.089844 75.003906 83.714844 75.269531 84.144531 75.792969 C 84.578125 76.324219 84.792969 77.082031 84.792969 78.074219 Z M 83.796875 77.566406 C 83.796875 76.972656 83.667969 76.511719 83.40625 76.191406 C 83.140625 75.867188 82.773438 75.707031 82.289063 75.707031 C 81.816406 75.707031 81.453125 75.867188 81.1875 76.195313 C 80.925781 76.519531 80.792969 76.976563 80.785156 77.566406 Z M 92.0625 73.585938 L 90.410156 77.945313 L 93.746094 77.945313 Z M 91.410156 72.632813 L 92.722656 72.632813 L 95.933594 80.855469 L 94.832031 80.855469 L 94.085938 78.882813 L 90.074219 78.882813 L 89.3125 80.855469 L 88.234375 80.855469 Z M 101.441406 76.355469 C 101.660156 75.90625 101.933594 75.5625 102.253906 75.335938 C 102.570313 75.105469 102.9375 74.992188 103.347656 74.992188 C 103.933594 74.992188 104.375 75.171875 104.667969 75.527344 C 104.960938 75.886719 105.105469 76.425781 105.105469 77.144531 L 105.105469 80.855469 L 104.164063 80.855469 L 104.164063 77.339844 C 104.164063 76.769531 104.074219 76.355469 103.890625 76.097656 C 103.710938 75.84375 103.421875 75.71875 103.019531 75.71875 C 102.59375 75.71875 102.234375 75.898438 101.945313 76.257813 C 101.652344 76.621094 101.507813 77.074219 101.507813 77.621094 L 101.507813 80.855469 L 100.554688 80.855469 L 100.554688 77.339844 C 100.554688 76.765625 100.464844 76.351563 100.289063 76.097656 C 100.113281 75.84375 99.824219 75.71875 99.425781 75.71875 C 98.996094 75.71875 98.640625 75.898438 98.351563 76.253906 C 98.0625 76.613281 97.914063 77.070313 97.914063 77.621094 L 97.914063 80.855469 L 96.972656 80.855469 L 96.972656 75.164063 L 97.914063 75.164063 L 97.914063 76.265625 C 98.140625 75.839844 98.40625 75.523438 98.714844 75.3125 C 99.019531 75.097656 99.363281 74.992188 99.753906 74.992188 C 100.210938 74.992188 100.578125 75.105469 100.863281 75.335938 C 101.144531 75.5625 101.339844 75.90625 101.441406 76.355469 Z M 108.019531 79.890625 L 108.019531 82.910156 L 107.078125 82.910156 L 107.078125 75.164063 L 108.019531 75.164063 L 108.019531 76.128906 C 108.257813 75.746094 108.527344 75.464844 108.832031 75.277344 C 109.136719 75.097656 109.480469 75.003906 109.867188 75.003906 C 110.574219 75.003906 111.132813 75.273438 111.542969 75.804688 C 111.953125 76.339844 112.15625 77.074219 112.15625 78.007813 C 112.15625 78.941406 111.953125 79.675781 111.539063 80.210938 C 111.128906 80.746094 110.570313 81.015625 109.867188 81.015625 C 109.480469 81.015625 109.136719 80.921875 108.832031 80.738281 C 108.527344 80.554688 108.257813 80.269531 108.019531 79.890625 Z M 109.585938 75.707031 C 109.089844 75.707031 108.707031 75.90625 108.429688 76.300781 C 108.15625 76.695313 108.019531 77.246094 108.019531 77.953125 C 108.019531 78.691406 108.152344 79.269531 108.425781 79.679688 C 108.695313 80.09375 109.074219 80.300781 109.550781 80.300781 C 110.058594 80.300781 110.449219 80.101563 110.726563 79.707031 C 111.003906 79.308594 111.144531 78.75 111.144531 78.03125 C 111.144531 77.296875 111.007813 76.726563 110.734375 76.320313 C 110.457031 75.910156 110.074219 75.707031 109.585938 75.707031 Z M 116.820313 77.476563 C 116.539063 77.613281 116.175781 77.734375 115.726563 77.835938 C 115.273438 77.941406 114.984375 78.015625 114.855469 78.0625 C 114.59375 78.160156 114.394531 78.300781 114.261719 78.488281 C 114.128906 78.675781 114.0625 78.90625 114.0625 79.1875 C 114.0625 79.53125 114.160156 79.796875 114.351563 79.984375 C 114.542969 80.171875 114.8125 80.265625 115.164063 80.265625 C 115.648438 80.265625 116.046875 80.121094 116.355469 79.832031 C 116.664063 79.539063 116.820313 79.160156 116.820313 78.699219 Z M 117.761719 76.992188 L 117.761719 79.402344 C 117.761719 79.730469 117.796875 79.945313 117.863281 80.046875 C 117.933594 80.152344 118.054688 80.207031 118.238281 80.207031 C 118.277344 80.207031 118.3125 80.203125 118.339844 80.203125 C 118.363281 80.203125 118.386719 80.199219 118.402344 80.195313 L 118.402344 80.898438 C 118.304688 80.9375 118.207031 80.960938 118.117188 80.980469 C 118.023438 80.996094 117.933594 81.003906 117.839844 81.003906 C 117.535156 81.003906 117.304688 80.917969 117.136719 80.746094 C 116.96875 80.574219 116.875 80.316406 116.855469 79.980469 C 116.5625 80.335938 116.265625 80.597656 115.964844 80.765625 C 115.660156 80.933594 115.328125 81.015625 114.972656 81.015625 C 114.414063 81.015625 113.96875 80.851563 113.636719 80.527344 C 113.300781 80.203125 113.132813 79.773438 113.132813 79.230469 C 113.132813 78.773438 113.269531 78.394531 113.535156 78.09375 C 113.804688 77.792969 114.203125 77.574219 114.742188 77.433594 C 114.878906 77.394531 115.089844 77.355469 115.371094 77.304688 C 116.027344 77.1875 116.511719 77.039063 116.820313 76.863281 C 116.824219 76.839844 116.828125 76.820313 116.828125 76.796875 C 116.828125 76.773438 116.832031 76.738281 116.832031 76.691406 C 116.832031 76.371094 116.730469 76.125 116.523438 75.949219 C 116.320313 75.773438 116.035156 75.683594 115.675781 75.683594 C 115.296875 75.683594 114.980469 75.761719 114.726563 75.914063 C 114.46875 76.066406 114.253906 76.308594 114.074219 76.636719 L 113.371094 76.265625 C 113.621094 75.824219 113.933594 75.507813 114.3125 75.304688 C 114.691406 75.101563 115.171875 75.003906 115.753906 75.003906 C 116.445313 75.003906 116.953125 75.160156 117.277344 75.480469 C 117.601563 75.796875 117.761719 76.300781 117.761719 76.992188 Z M 122.714844 75.046875 L 122.714844 76.078125 C 122.628906 76.058594 122.550781 76.046875 122.488281 76.039063 C 122.425781 76.03125 122.367188 76.027344 122.304688 76.027344 C 121.832031 76.027344 121.460938 76.242188 121.1875 76.675781 C 120.914063 77.105469 120.777344 77.703125 120.777344 78.464844 L 120.777344 80.855469 L 119.808594 80.855469 L 119.808594 75.164063 L 120.695313 75.164063 L 120.695313 76.753906 L 120.761719 76.753906 C 120.941406 76.148438 121.160156 75.703125 121.410156 75.425781 C 121.664063 75.144531 121.976563 75.003906 122.339844 75.003906 C 122.414063 75.003906 122.519531 75.015625 122.660156 75.042969 C 122.683594 75.042969 122.703125 75.046875 122.714844 75.046875 Z M 126.007813 75.75 C 125.492188 75.75 125.085938 75.953125 124.789063 76.355469 C 124.492188 76.757813 124.34375 77.308594 124.34375 78.007813 C 124.34375 78.714844 124.488281 79.265625 124.785156 79.660156 C 125.082031 80.054688 125.488281 80.253906 126.007813 80.253906 C 126.519531 80.253906 126.925781 80.054688 127.222656 79.65625 C 127.515625 79.257813 127.664063 78.707031 127.664063 78.007813 C 127.664063 77.308594 127.515625 76.757813 127.222656 76.355469 C 126.925781 75.953125 126.519531 75.75 126.007813 75.75 Z M 126.007813 75.003906 C 126.800781 75.003906 127.445313 75.277344 127.9375 75.832031 C 128.429688 76.386719 128.675781 77.113281 128.675781 78.007813 C 128.675781 78.902344 128.429688 79.628906 127.933594 80.183594 C 127.441406 80.738281 126.796875 81.015625 126.007813 81.015625 C 125.21875 81.015625 124.578125 80.738281 124.085938 80.183594 C 123.59375 79.628906 123.347656 78.90625 123.347656 78.007813 C 123.347656 77.105469 123.59375 76.378906 124.085938 75.828125 C 124.574219 75.277344 125.214844 75.003906 126.007813 75.003906 Z M 24.011719 91.082031 C 23.730469 91.21875 23.367188 91.339844 22.914063 91.441406 C 22.464844 91.542969 22.175781 91.621094 22.046875 91.667969 C 21.785156 91.765625 21.585938 91.90625 21.453125 92.09375 C 21.320313 92.28125 21.253906 92.511719 21.253906 92.792969 C 21.253906 93.136719 21.351563 93.402344 21.542969 93.589844 C 21.734375 93.777344 22.003906 93.871094 22.355469 93.871094 C 22.839844 93.871094 23.238281 93.726563 23.546875 93.4375 C 23.855469 93.144531 24.011719 92.765625 24.011719 92.304688 Z M 24.953125 90.597656 L 24.953125 93.007813 C 24.953125 93.335938 24.988281 93.550781 25.054688 93.652344 C 25.121094 93.757813 25.246094 93.8125 25.429688 93.8125 C 25.46875 93.8125 25.503906 93.808594 25.527344 93.808594 C 25.554688 93.804688 25.578125 93.804688 25.59375 93.800781 L 25.59375 94.503906 C 25.496094 94.542969 25.398438 94.566406 25.308594 94.585938 C 25.214844 94.601563 25.121094 94.609375 25.03125 94.609375 C 24.726563 94.609375 24.492188 94.523438 24.328125 94.351563 C 24.160156 94.179688 24.066406 93.921875 24.046875 93.585938 C 23.753906 93.941406 23.457031 94.207031 23.15625 94.371094 C 22.851563 94.539063 22.519531 94.621094 22.164063 94.621094 C 21.605469 94.621094 21.160156 94.457031 20.828125 94.132813 C 20.492188 93.808594 20.324219 93.378906 20.324219 92.835938 C 20.324219 92.378906 20.460938 92 20.726563 91.699219 C 20.996094 91.398438 21.394531 91.179688 21.929688 91.039063 C 22.070313 91 22.28125 90.960938 22.5625 90.910156 C 23.21875 90.792969 23.703125 90.644531 24.011719 90.46875 C 24.015625 90.445313 24.019531 90.425781 24.019531 90.402344 C 24.019531 90.378906 24.023438 90.34375 24.023438 90.296875 C 24.023438 89.976563 23.921875 89.730469 23.714844 89.554688 C 23.511719 89.378906 23.226563 89.289063 22.867188 89.289063 C 22.488281 89.289063 22.171875 89.367188 21.917969 89.519531 C 21.660156 89.671875 21.445313 89.914063 21.265625 90.242188 L 20.5625 89.871094 C 20.8125 89.429688 21.125 89.109375 21.503906 88.910156 C 21.882813 88.710938 22.363281 88.609375 22.945313 88.609375 C 23.636719 88.609375 24.144531 88.769531 24.46875 89.085938 C 24.792969 89.402344 24.953125 89.90625 24.953125 90.597656 Z M 21.515625 86.058594 L 22.457031 86.058594 L 23.609375 87.988281 L 23.058594 87.988281 Z M 31.046875 87.167969 L 31.046875 90.230469 L 32.988281 90.230469 C 33.59375 90.230469 34.050781 90.101563 34.359375 89.84375 C 34.667969 89.585938 34.824219 89.203125 34.824219 88.691406 C 34.824219 88.191406 34.667969 87.8125 34.351563 87.554688 C 34.039063 87.296875 33.578125 87.167969 32.960938 87.167969 Z M 29.949219 86.238281 L 32.753906 86.238281 C 33.828125 86.238281 34.632813 86.441406 35.167969 86.84375 C 35.703125 87.246094 35.96875 87.851563 35.96875 88.664063 C 35.96875 89.460938 35.71875 90.074219 35.226563 90.503906 C 34.730469 90.933594 34.027344 91.152344 33.109375 91.152344 L 31.046875 91.152344 L 31.046875 94.460938 L 29.949219 94.460938 Z M 41.503906 91.894531 L 37.488281 91.894531 C 37.488281 92.539063 37.628906 93.027344 37.914063 93.359375 C 38.199219 93.691406 38.613281 93.855469 39.15625 93.855469 C 39.492188 93.855469 39.777344 93.777344 40.007813 93.613281 C 40.242188 93.453125 40.457031 93.183594 40.65625 92.816406 L 41.347656 93.226563 C 41.109375 93.707031 40.804688 94.058594 40.4375 94.28125 C 40.066406 94.507813 39.605469 94.621094 39.058594 94.621094 C 38.246094 94.621094 37.617188 94.359375 37.171875 93.835938 C 36.726563 93.316406 36.503906 92.574219 36.503906 91.613281 C 36.503906 90.683594 36.726563 89.953125 37.171875 89.414063 C 37.617188 88.878906 38.222656 88.609375 38.992188 88.609375 C 39.800781 88.609375 40.425781 88.875 40.855469 89.402344 C 41.289063 89.925781 41.503906 90.6875 41.503906 91.679688 Z M 40.507813 91.171875 C 40.507813 90.578125 40.378906 90.117188 40.113281 89.796875 C 39.851563 89.472656 39.480469 89.3125 39 89.3125 C 38.527344 89.3125 38.160156 89.472656 37.898438 89.800781 C 37.636719 90.125 37.503906 90.582031 37.496094 91.171875 Z M 47.019531 89.992188 L 46.21875 90.253906 C 46.054688 89.914063 45.851563 89.667969 45.621094 89.511719 C 45.390625 89.355469 45.101563 89.28125 44.757813 89.28125 C 44.425781 89.28125 44.15625 89.355469 43.953125 89.503906 C 43.746094 89.652344 43.644531 89.84375 43.644531 90.070313 C 43.644531 90.441406 44.105469 90.765625 45.035156 91.042969 C 45.070313 91.054688 45.101563 91.066406 45.121094 91.074219 C 45.890625 91.304688 46.414063 91.550781 46.6875 91.8125 C 46.964844 92.070313 47.105469 92.417969 47.105469 92.847656 C 47.105469 93.390625 46.894531 93.816406 46.476563 94.140625 C 46.0625 94.460938 45.496094 94.621094 44.789063 94.621094 C 44.171875 94.621094 43.675781 94.480469 43.289063 94.199219 C 42.90625 93.914063 42.621094 93.476563 42.429688 92.882813 L 43.222656 92.542969 C 43.34375 93.003906 43.539063 93.34375 43.820313 93.574219 C 44.097656 93.800781 44.457031 93.917969 44.890625 93.917969 C 45.273438 93.917969 45.589844 93.828125 45.832031 93.648438 C 46.078125 93.46875 46.195313 93.242188 46.195313 92.964844 C 46.195313 92.550781 45.722656 92.199219 44.769531 91.90625 C 44.601563 91.855469 44.472656 91.816406 44.382813 91.785156 C 43.789063 91.59375 43.375 91.378906 43.132813 91.140625 C 42.890625 90.898438 42.769531 90.589844 42.769531 90.210938 C 42.769531 89.730469 42.953125 89.34375 43.316406 89.046875 C 43.679688 88.757813 44.160156 88.609375 44.769531 88.609375 C 45.320313 88.609375 45.777344 88.722656 46.144531 88.945313 C 46.511719 89.171875 46.804688 89.519531 47.019531 89.992188 Z M 50.699219 93.894531 C 50.867188 93.894531 51.03125 93.863281 51.1875 93.800781 C 51.34375 93.738281 51.488281 93.648438 51.617188 93.53125 C 51.84375 93.320313 52.007813 93.085938 52.097656 92.824219 C 52.195313 92.5625 52.242188 92.160156 52.242188 91.613281 C 52.242188 91.070313 52.195313 90.667969 52.101563 90.40625 C 52.011719 90.144531 51.851563 89.910156 51.628906 89.699219 C 51.5 89.582031 51.351563 89.492188 51.191406 89.429688 C 51.03125 89.367188 50.867188 89.335938 50.699219 89.335938 C 50.207031 89.335938 49.820313 89.535156 49.542969 89.9375 C 49.261719 90.339844 49.121094 90.898438 49.121094 91.613281 C 49.121094 92.328125 49.261719 92.882813 49.542969 93.289063 C 49.824219 93.691406 50.210938 93.894531 50.699219 93.894531 Z M 52.242188 93.496094 C 52 93.875 51.730469 94.160156 51.425781 94.34375 C 51.121094 94.527344 50.777344 94.621094 50.394531 94.621094 C 49.683594 94.621094 49.128906 94.355469 48.722656 93.820313 C 48.316406 93.285156 48.113281 92.550781 48.113281 91.613281 C 48.113281 90.679688 48.316406 89.945313 48.726563 89.410156 C 49.132813 88.878906 49.6875 88.609375 50.394531 88.609375 C 50.777344 88.609375 51.121094 88.703125 51.425781 88.886719 C 51.730469 89.070313 52 89.351563 52.242188 89.734375 L 52.242188 88.769531 L 53.195313 88.769531 L 53.195313 96.515625 L 52.242188 96.515625 Z M 55.132813 88.769531 L 56.085938 88.769531 L 56.085938 92.273438 C 56.085938 92.84375 56.179688 93.257813 56.371094 93.515625 C 56.558594 93.769531 56.863281 93.894531 57.285156 93.894531 C 57.773438 93.894531 58.164063 93.722656 58.457031 93.375 C 58.75 93.027344 58.894531 92.566406 58.894531 91.992188 L 58.894531 88.769531 L 59.835938 88.769531 L 59.835938 94.460938 L 58.894531 94.460938 L 58.894531 93.347656 C 58.675781 93.78125 58.40625 94.097656 58.085938 94.308594 C 57.765625 94.515625 57.390625 94.621094 56.960938 94.621094 C 56.347656 94.621094 55.894531 94.441406 55.589844 94.082031 C 55.285156 93.722656 55.132813 93.183594 55.132813 92.46875 Z M 61.898438 88.769531 L 62.863281 88.769531 L 62.863281 94.460938 L 61.898438 94.460938 Z M 61.898438 86.378906 L 62.863281 86.378906 L 62.863281 87.589844 L 61.898438 87.589844 Z M 68.957031 89.992188 L 68.15625 90.253906 C 67.992188 89.914063 67.789063 89.667969 67.558594 89.511719 C 67.328125 89.355469 67.039063 89.28125 66.695313 89.28125 C 66.363281 89.28125 66.09375 89.355469 65.890625 89.503906 C 65.683594 89.652344 65.582031 89.84375 65.582031 90.070313 C 65.582031 90.441406 66.046875 90.765625 66.972656 91.042969 C 67.007813 91.054688 67.039063 91.066406 67.058594 91.074219 C 67.828125 91.304688 68.351563 91.550781 68.625 91.8125 C 68.902344 92.070313 69.042969 92.417969 69.042969 92.847656 C 69.042969 93.390625 68.832031 93.816406 68.417969 94.140625 C 68 94.460938 67.433594 94.621094 66.726563 94.621094 C 66.109375 94.621094 65.613281 94.480469 65.226563 94.199219 C 64.84375 93.914063 64.558594 93.476563 64.367188 92.882813 L 65.160156 92.542969 C 65.28125 93.003906 65.476563 93.34375 65.757813 93.574219 C 66.035156 93.800781 66.394531 93.917969 66.828125 93.917969 C 67.214844 93.917969 67.527344 93.828125 67.769531 93.648438 C 68.015625 93.46875 68.132813 93.242188 68.132813 92.964844 C 68.132813 92.550781 67.660156 92.199219 66.707031 91.90625 C 66.539063 91.855469 66.410156 91.816406 66.320313 91.785156 C 65.726563 91.59375 65.3125 91.378906 65.070313 91.140625 C 64.828125 90.898438 64.707031 90.589844 64.707031 90.210938 C 64.707031 89.730469 64.890625 89.34375 65.253906 89.046875 C 65.617188 88.757813 66.101563 88.609375 66.707031 88.609375 C 67.257813 88.609375 67.714844 88.722656 68.082031 88.945313 C 68.449219 89.171875 68.742188 89.519531 68.957031 89.992188 Z M 73.726563 91.082031 C 73.445313 91.21875 73.078125 91.339844 72.628906 91.441406 C 72.179688 91.542969 71.890625 91.621094 71.761719 91.667969 C 71.496094 91.765625 71.300781 91.90625 71.167969 92.09375 C 71.035156 92.28125 70.96875 92.511719 70.96875 92.792969 C 70.96875 93.136719 71.066406 93.402344 71.257813 93.589844 C 71.449219 93.777344 71.71875 93.871094 72.070313 93.871094 C 72.554688 93.871094 72.949219 93.726563 73.261719 93.4375 C 73.570313 93.144531 73.726563 92.765625 73.726563 92.304688 Z M 74.664063 90.597656 L 74.664063 93.007813 C 74.664063 93.335938 74.699219 93.550781 74.769531 93.652344 C 74.835938 93.757813 74.960938 93.8125 75.140625 93.8125 C 75.183594 93.8125 75.214844 93.808594 75.242188 93.808594 C 75.269531 93.804688 75.289063 93.804688 75.308594 93.800781 L 75.308594 94.503906 C 75.207031 94.542969 75.113281 94.566406 75.023438 94.585938 C 74.929688 94.601563 74.835938 94.609375 74.742188 94.609375 C 74.441406 94.609375 74.207031 94.523438 74.039063 94.351563 C 73.875 94.179688 73.78125 93.921875 73.757813 93.585938 C 73.464844 93.941406 73.167969 94.207031 72.867188 94.371094 C 72.566406 94.539063 72.234375 94.621094 71.878906 94.621094 C 71.320313 94.621094 70.875 94.457031 70.539063 94.132813 C 70.207031 93.808594 70.039063 93.378906 70.039063 92.835938 C 70.039063 92.378906 70.171875 92 70.441406 91.699219 C 70.707031 91.398438 71.109375 91.179688 71.644531 91.039063 C 71.785156 91 71.996094 90.960938 72.273438 90.910156 C 72.933594 90.792969 73.414063 90.644531 73.726563 90.46875 C 73.730469 90.445313 73.730469 90.425781 73.734375 90.402344 C 73.734375 90.378906 73.738281 90.34375 73.738281 90.296875 C 73.738281 89.976563 73.636719 89.730469 73.429688 89.554688 C 73.222656 89.378906 72.941406 89.289063 72.582031 89.289063 C 72.203125 89.289063 71.886719 89.367188 71.628906 89.519531 C 71.371094 89.671875 71.15625 89.914063 70.980469 90.242188 L 70.277344 89.871094 C 70.523438 89.429688 70.839844 89.109375 71.21875 88.910156 C 71.597656 88.710938 72.078125 88.609375 72.65625 88.609375 C 73.351563 88.609375 73.859375 88.769531 74.183594 89.085938 C 74.507813 89.402344 74.664063 89.90625 74.664063 90.597656 Z M 81.644531 93.894531 C 81.816406 93.894531 81.976563 93.863281 82.136719 93.800781 C 82.292969 93.738281 82.433594 93.648438 82.566406 93.53125 C 82.792969 93.320313 82.957031 93.085938 83.046875 92.824219 C 83.140625 92.5625 83.191406 92.160156 83.191406 91.613281 C 83.191406 91.070313 83.144531 90.667969 83.050781 90.40625 C 82.960938 90.144531 82.800781 89.910156 82.574219 89.699219 C 82.445313 89.582031 82.300781 89.492188 82.140625 89.429688 C 81.980469 89.367188 81.816406 89.335938 81.644531 89.335938 C 81.15625 89.335938 80.769531 89.535156 80.488281 89.9375 C 80.207031 90.339844 80.066406 90.898438 80.066406 91.613281 C 80.066406 92.328125 80.210938 92.882813 80.492188 93.289063 C 80.773438 93.691406 81.15625 93.894531 81.644531 93.894531 Z M 83.191406 93.496094 C 82.949219 93.875 82.675781 94.160156 82.375 94.34375 C 82.070313 94.527344 81.726563 94.621094 81.34375 94.621094 C 80.632813 94.621094 80.074219 94.355469 79.667969 93.820313 C 79.261719 93.285156 79.0625 92.550781 79.0625 91.613281 C 79.0625 90.679688 79.265625 89.945313 79.671875 89.410156 C 80.078125 88.878906 80.636719 88.609375 81.34375 88.609375 C 81.726563 88.609375 82.070313 88.703125 82.375 88.886719 C 82.675781 89.070313 82.949219 89.351563 83.191406 89.734375 L 83.191406 86.238281 L 84.140625 86.238281 L 84.140625 94.460938 L 83.191406 94.460938 L 83.191406 93.496094 "/>
<path style=" stroke:none;fill-rule:evenodd;fill:rgb(13.699341%,12.199402%,12.5%);fill-opacity:1;" d="M 88.277344 89.355469 C 87.761719 89.355469 87.355469 89.558594 87.058594 89.960938 C 86.761719 90.363281 86.609375 90.914063 86.609375 91.613281 C 86.609375 92.320313 86.757813 92.871094 87.054688 93.265625 C 87.347656 93.660156 87.757813 93.855469 88.277344 93.855469 C 88.789063 93.855469 89.195313 93.660156 89.492188 93.261719 C 89.785156 92.863281 89.933594 92.3125 89.933594 91.613281 C 89.933594 90.914063 89.785156 90.363281 89.492188 89.960938 C 89.195313 89.558594 88.789063 89.355469 88.277344 89.355469 Z M 88.277344 88.609375 C 89.070313 88.609375 89.714844 88.886719 90.207031 89.4375 C 90.699219 89.992188 90.945313 90.71875 90.945313 91.613281 C 90.945313 92.507813 90.699219 93.230469 90.203125 93.789063 C 89.710938 94.34375 89.066406 94.621094 88.277344 94.621094 C 87.488281 94.621094 86.847656 94.34375 86.355469 93.789063 C 85.859375 93.234375 85.617188 92.511719 85.617188 91.613281 C 85.617188 90.710938 85.859375 89.984375 86.351563 89.433594 C 86.84375 88.886719 87.484375 88.609375 88.277344 88.609375 Z M 95.421875 86.238281 L 100.4375 86.238281 L 100.164063 87.15625 L 96.519531 87.15625 L 96.519531 89.734375 L 99.820313 89.734375 L 99.820313 90.640625 L 96.519531 90.640625 L 96.519531 93.519531 L 100.265625 93.519531 L 100.503906 94.460938 L 95.421875 94.460938 Z M 105.972656 89.992188 L 105.171875 90.253906 C 105.007813 89.914063 104.804688 89.667969 104.574219 89.511719 C 104.339844 89.355469 104.054688 89.28125 103.710938 89.28125 C 103.378906 89.28125 103.109375 89.355469 102.90625 89.503906 C 102.699219 89.652344 102.597656 89.84375 102.597656 90.070313 C 102.597656 90.441406 103.058594 90.765625 103.988281 91.042969 C 104.023438 91.054688 104.054688 91.066406 104.074219 91.074219 C 104.84375 91.304688 105.363281 91.550781 105.640625 91.8125 C 105.917969 92.070313 106.058594 92.417969 106.058594 92.847656 C 106.058594 93.390625 105.847656 93.816406 105.429688 94.140625 C 105.015625 94.460938 104.449219 94.621094 103.742188 94.621094 C 103.125 94.621094 102.628906 94.480469 102.242188 94.199219 C 101.859375 93.914063 101.574219 93.476563 101.382813 92.882813 L 102.175781 92.542969 C 102.296875 93.003906 102.492188 93.34375 102.769531 93.574219 C 103.050781 93.800781 103.40625 93.917969 103.84375 93.917969 C 104.226563 93.917969 104.539063 93.828125 104.785156 93.648438 C 105.027344 93.46875 105.148438 93.242188 105.148438 92.964844 C 105.148438 92.550781 104.675781 92.199219 103.722656 91.90625 C 103.554688 91.855469 103.425781 91.816406 103.335938 91.785156 C 102.742188 91.59375 102.328125 91.378906 102.085938 91.140625 C 101.84375 90.898438 101.722656 90.589844 101.722656 90.210938 C 101.722656 89.730469 101.902344 89.34375 102.269531 89.046875 C 102.632813 88.757813 103.113281 88.609375 103.722656 88.609375 C 104.269531 88.609375 104.730469 88.722656 105.097656 88.945313 C 105.464844 89.171875 105.757813 89.519531 105.972656 89.992188 Z M 108.664063 86.296875 L 108.664063 88.769531 L 109.800781 88.769531 L 109.800781 89.539063 L 108.664063 89.539063 L 108.664063 92.984375 C 108.664063 93.308594 108.714844 93.523438 108.820313 93.632813 C 108.921875 93.746094 109.121094 93.800781 109.414063 93.800781 C 109.460938 93.800781 109.519531 93.796875 109.585938 93.785156 C 109.652344 93.773438 109.746094 93.757813 109.855469 93.734375 L 109.855469 94.492188 C 109.707031 94.535156 109.5625 94.566406 109.425781 94.585938 C 109.289063 94.609375 109.152344 94.621094 109.023438 94.621094 C 108.558594 94.621094 108.226563 94.515625 108.023438 94.304688 C 107.824219 94.09375 107.722656 93.746094 107.722656 93.257813 L 107.722656 89.539063 L 106.738281 89.539063 L 106.738281 88.769531 L 107.722656 88.769531 L 107.722656 86.832031 Z M 114.492188 91.082031 C 114.214844 91.21875 113.847656 91.339844 113.398438 91.441406 C 112.949219 91.542969 112.65625 91.621094 112.527344 91.667969 C 112.265625 91.765625 112.070313 91.90625 111.933594 92.09375 C 111.800781 92.28125 111.734375 92.511719 111.734375 92.792969 C 111.734375 93.136719 111.832031 93.402344 112.023438 93.589844 C 112.214844 93.777344 112.488281 93.871094 112.839844 93.871094 C 113.320313 93.871094 113.71875 93.726563 114.027344 93.4375 C 114.339844 93.144531 114.492188 92.765625 114.492188 92.304688 Z M 115.433594 90.597656 L 115.433594 93.007813 C 115.433594 93.335938 115.46875 93.550781 115.535156 93.652344 C 115.605469 93.757813 115.730469 93.8125 115.910156 93.8125 C 115.953125 93.8125 115.984375 93.808594 116.011719 93.808594 C 116.035156 93.804688 116.058594 93.804688 116.074219 93.800781 L 116.074219 94.503906 C 115.976563 94.542969 115.878906 94.566406 115.789063 94.585938 C 115.695313 94.601563 115.605469 94.609375 115.511719 94.609375 C 115.210938 94.609375 114.976563 94.523438 114.808594 94.351563 C 114.640625 94.179688 114.546875 93.921875 114.527344 93.585938 C 114.234375 93.941406 113.9375 94.207031 113.636719 94.371094 C 113.332031 94.539063 113.003906 94.621094 112.644531 94.621094 C 112.089844 94.621094 111.640625 94.457031 111.308594 94.132813 C 110.972656 93.808594 110.808594 93.378906 110.808594 92.835938 C 110.808594 92.378906 110.941406 92 111.207031 91.699219 C 111.476563 91.398438 111.875 91.179688 112.414063 91.039063 C 112.554688 91 112.761719 90.960938 113.042969 90.910156 C 113.699219 90.792969 114.183594 90.644531 114.492188 90.46875 C 114.496094 90.445313 114.496094 90.425781 114.5 90.402344 C 114.503906 90.378906 114.503906 90.34375 114.503906 90.296875 C 114.503906 89.976563 114.402344 89.730469 114.195313 89.554688 C 113.992188 89.378906 113.710938 89.289063 113.347656 89.289063 C 112.96875 89.289063 112.652344 89.367188 112.398438 89.519531 C 112.140625 89.671875 111.925781 89.914063 111.746094 90.242188 L 111.046875 89.871094 C 111.292969 89.429688 111.605469 89.109375 111.984375 88.910156 C 112.367188 88.710938 112.84375 88.609375 113.425781 88.609375 C 114.117188 88.609375 114.628906 88.769531 114.949219 89.085938 C 115.273438 89.402344 115.433594 89.90625 115.433594 90.597656 Z M 119.523438 93.894531 C 119.695313 93.894531 119.855469 93.863281 120.015625 93.800781 C 120.171875 93.738281 120.3125 93.648438 120.441406 93.53125 C 120.671875 93.320313 120.835938 93.085938 120.925781 92.824219 C 121.019531 92.5625 121.066406 92.160156 121.066406 91.613281 C 121.066406 91.070313 121.023438 90.667969 120.929688 90.40625 C 120.839844 90.144531 120.679688 89.910156 120.453125 89.699219 C 120.324219 89.582031 120.179688 89.492188 120.019531 89.429688 C 119.859375 89.367188 119.695313 89.335938 119.523438 89.335938 C 119.03125 89.335938 118.648438 89.535156 118.367188 89.9375 C 118.085938 90.339844 117.945313 90.898438 117.945313 91.613281 C 117.945313 92.328125 118.089844 92.882813 118.371094 93.289063 C 118.652344 93.691406 119.035156 93.894531 119.523438 93.894531 Z M 121.066406 93.496094 C 120.828125 93.875 120.554688 94.160156 120.253906 94.34375 C 119.949219 94.527344 119.605469 94.621094 119.21875 94.621094 C 118.511719 94.621094 117.953125 94.355469 117.546875 93.820313 C 117.140625 93.285156 116.941406 92.550781 116.941406 91.613281 C 116.941406 90.679688 117.144531 89.945313 117.550781 89.410156 C 117.957031 88.878906 118.515625 88.609375 119.21875 88.609375 C 119.605469 88.609375 119.949219 88.703125 120.253906 88.886719 C 120.554688 89.070313 120.828125 89.351563 121.066406 89.734375 L 121.066406 86.238281 L 122.019531 86.238281 L 122.019531 94.460938 L 121.066406 94.460938 Z M 126.15625 89.355469 C 125.636719 89.355469 125.230469 89.558594 124.9375 89.960938 C 124.640625 90.363281 124.488281 90.914063 124.488281 91.613281 C 124.488281 92.320313 124.636719 92.871094 124.933594 93.265625 C 125.226563 93.660156 125.636719 93.855469 126.15625 93.855469 C 126.667969 93.855469 127.074219 93.660156 127.367188 93.261719 C 127.664063 92.863281 127.8125 92.3125 127.8125 91.613281 C 127.8125 90.914063 127.664063 90.363281 127.367188 89.960938 C 127.074219 89.558594 126.667969 89.355469 126.15625 89.355469 Z M 126.15625 88.609375 C 126.949219 88.609375 127.59375 88.886719 128.085938 89.4375 C 128.578125 89.992188 128.824219 90.71875 128.824219 91.613281 C 128.824219 92.507813 128.578125 93.230469 128.082031 93.789063 C 127.589844 94.34375 126.945313 94.621094 126.15625 94.621094 C 125.367188 94.621094 124.726563 94.34375 124.234375 93.789063 C 123.738281 93.234375 123.492188 92.511719 123.492188 91.613281 C 123.492188 90.710938 123.738281 89.984375 124.230469 89.433594 C 124.71875 88.886719 125.363281 88.609375 126.15625 88.609375 Z M 135.285156 93.894531 C 135.453125 93.894531 135.617188 93.863281 135.773438 93.800781 C 135.929688 93.738281 136.074219 93.648438 136.203125 93.53125 C 136.429688 93.320313 136.59375 93.085938 136.6875 92.824219 C 136.78125 92.5625 136.828125 92.160156 136.828125 91.613281 C 136.828125 91.070313 136.78125 90.667969 136.6875 90.40625 C 136.597656 90.144531 136.4375 89.910156 136.214844 89.699219 C 136.085938 89.582031 135.9375 89.492188 135.777344 89.429688 C 135.617188 89.367188 135.453125 89.335938 135.285156 89.335938 C 134.792969 89.335938 134.40625 89.535156 134.128906 89.9375 C 133.847656 90.339844 133.707031 90.898438 133.707031 91.613281 C 133.707031 92.328125 133.847656 92.882813 134.128906 93.289063 C 134.410156 93.691406 134.796875 93.894531 135.285156 93.894531 Z M 136.828125 93.496094 C 136.589844 93.875 136.316406 94.160156 136.011719 94.34375 C 135.707031 94.527344 135.363281 94.621094 134.980469 94.621094 C 134.269531 94.621094 133.714844 94.355469 133.308594 93.820313 C 132.902344 93.285156 132.699219 92.550781 132.699219 91.613281 C 132.699219 90.679688 132.902344 89.945313 133.3125 89.410156 C 133.71875 88.878906 134.273438 88.609375 134.980469 88.609375 C 135.363281 88.609375 135.707031 88.703125 136.011719 88.886719 C 136.316406 89.070313 136.589844 89.351563 136.828125 89.734375 L 136.828125 86.238281 L 137.78125 86.238281 L 137.78125 94.460938 L 136.828125 94.460938 Z M 142.941406 91.082031 C 142.660156 91.21875 142.292969 91.339844 141.84375 91.441406 C 141.394531 91.542969 141.101563 91.621094 140.976563 91.667969 C 140.710938 91.765625 140.515625 91.90625 140.382813 92.09375 C 140.25 92.28125 140.183594 92.511719 140.183594 92.792969 C 140.183594 93.136719 140.277344 93.402344 140.46875 93.589844 C 140.664063 93.777344 140.933594 93.871094 141.285156 93.871094 C 141.769531 93.871094 142.164063 93.726563 142.476563 93.4375 C 142.785156 93.144531 142.941406 92.765625 142.941406 92.304688 Z M 143.878906 90.597656 L 143.878906 93.007813 C 143.878906 93.335938 143.914063 93.550781 143.980469 93.652344 C 144.050781 93.757813 144.175781 93.8125 144.355469 93.8125 C 144.398438 93.8125 144.429688 93.808594 144.457031 93.808594 C 144.484375 93.804688 144.503906 93.804688 144.523438 93.800781 L 144.523438 94.503906 C 144.421875 94.542969 144.328125 94.566406 144.234375 94.585938 C 144.144531 94.601563 144.050781 94.609375 143.957031 94.609375 C 143.65625 94.609375 143.421875 94.523438 143.253906 94.351563 C 143.089844 94.179688 142.996094 93.921875 142.972656 93.585938 C 142.679688 93.941406 142.382813 94.207031 142.082031 94.371094 C 141.78125 94.539063 141.449219 94.621094 141.09375 94.621094 C 140.535156 94.621094 140.089844 94.457031 139.753906 94.132813 C 139.421875 93.808594 139.253906 93.378906 139.253906 92.835938 C 139.253906 92.378906 139.386719 92 139.652344 91.699219 C 139.921875 91.398438 140.324219 91.179688 140.859375 91.039063 C 141 91 141.210938 90.960938 141.488281 90.910156 C 142.144531 90.792969 142.628906 90.644531 142.941406 90.46875 C 142.941406 90.445313 142.945313 90.425781 142.945313 90.402344 C 142.949219 90.378906 142.949219 90.34375 142.949219 90.296875 C 142.949219 89.976563 142.847656 89.730469 142.644531 89.554688 C 142.4375 89.378906 142.15625 89.289063 141.796875 89.289063 C 141.417969 89.289063 141.101563 89.367188 140.84375 89.519531 C 140.585938 89.671875 140.371094 89.914063 140.195313 90.242188 L 139.492188 89.871094 C 139.738281 89.429688 140.054688 89.109375 140.433594 88.910156 C 140.8125 88.710938 141.292969 88.609375 141.871094 88.609375 C 142.566406 88.609375 143.074219 88.769531 143.398438 89.085938 C 143.71875 89.402344 143.878906 89.90625 143.878906 90.597656 Z M 149.929688 90.492188 L 149.929688 93.554688 L 151.867188 93.554688 C 152.667969 93.554688 153.242188 93.4375 153.589844 93.203125 C 153.941406 92.96875 154.113281 92.585938 154.113281 92.058594 C 154.113281 91.539063 153.902344 91.144531 153.484375 90.882813 C 153.066406 90.621094 152.441406 90.492188 151.609375 90.492188 Z M 149.929688 87.144531 L 149.929688 89.59375 L 151.597656 89.59375 C 152.34375 89.59375 152.902344 89.484375 153.261719 89.273438 C 153.621094 89.058594 153.800781 88.726563 153.800781 88.28125 C 153.800781 87.890625 153.640625 87.605469 153.324219 87.421875 C 153.011719 87.238281 152.511719 87.144531 151.835938 87.144531 Z M 148.878906 86.238281 L 151.734375 86.238281 C 152.8125 86.238281 153.605469 86.394531 154.113281 86.710938 C 154.621094 87.027344 154.871094 87.519531 154.871094 88.1875 C 154.871094 88.644531 154.71875 89.027344 154.410156 89.335938 C 154.101563 89.644531 153.65625 89.863281 153.070313 89.992188 C 153.769531 90.105469 154.304688 90.347656 154.679688 90.71875 C 155.050781 91.085938 155.238281 91.5625 155.238281 92.144531 C 155.238281 92.921875 154.96875 93.5 154.429688 93.882813 C 153.890625 94.269531 153.078125 94.460938 151.996094 94.460938 L 148.878906 94.460938 Z M 159.941406 91.082031 C 159.664063 91.21875 159.296875 91.339844 158.847656 91.441406 C 158.398438 91.542969 158.105469 91.621094 157.976563 91.667969 C 157.714844 91.765625 157.519531 91.90625 157.382813 92.09375 C 157.253906 92.28125 157.1875 92.511719 157.1875 92.792969 C 157.1875 93.136719 157.28125 93.402344 157.472656 93.589844 C 157.664063 93.777344 157.9375 93.871094 158.289063 93.871094 C 158.769531 93.871094 159.167969 93.726563 159.476563 93.4375 C 159.789063 93.144531 159.941406 92.765625 159.941406 92.304688 Z M 160.882813 90.597656 L 160.882813 93.007813 C 160.882813 93.335938 160.917969 93.550781 160.984375 93.652344 C 161.054688 93.757813 161.179688 93.8125 161.359375 93.8125 C 161.402344 93.8125 161.433594 93.808594 161.460938 93.808594 C 161.484375 93.804688 161.507813 93.804688 161.527344 93.800781 L 161.527344 94.503906 C 161.425781 94.542969 161.328125 94.566406 161.238281 94.585938 C 161.144531 94.601563 161.054688 94.609375 160.960938 94.609375 C 160.660156 94.609375 160.425781 94.523438 160.257813 94.351563 C 160.089844 94.179688 159.996094 93.921875 159.976563 93.585938 C 159.683594 93.941406 159.386719 94.207031 159.085938 94.371094 C 158.78125 94.539063 158.453125 94.621094 158.09375 94.621094 C 157.535156 94.621094 157.089844 94.457031 156.757813 94.132813 C 156.421875 93.808594 156.257813 93.378906 156.257813 92.835938 C 156.257813 92.378906 156.390625 92 156.65625 91.699219 C 156.925781 91.398438 157.324219 91.179688 157.863281 91.039063 C 158.003906 91 158.210938 90.960938 158.492188 90.910156 C 159.148438 90.792969 159.632813 90.644531 159.941406 90.46875 C 159.945313 90.445313 159.949219 90.425781 159.949219 90.402344 C 159.953125 90.378906 159.953125 90.34375 159.953125 90.296875 C 159.953125 89.976563 159.851563 89.730469 159.644531 89.554688 C 159.441406 89.378906 159.160156 89.289063 158.796875 89.289063 C 158.421875 89.289063 158.105469 89.367188 157.847656 89.519531 C 157.589844 89.671875 157.375 89.914063 157.195313 90.242188 L 156.496094 89.871094 C 156.742188 89.429688 157.054688 89.109375 157.433594 88.910156 C 157.816406 88.710938 158.296875 88.609375 158.875 88.609375 C 159.566406 88.609375 160.078125 88.769531 160.398438 89.085938 C 160.722656 89.402344 160.882813 89.90625 160.882813 90.597656 Z M 162.875 86.238281 L 163.816406 86.238281 L 163.816406 89.871094 C 164.03125 89.441406 164.304688 89.121094 164.625 88.914063 C 164.945313 88.703125 165.320313 88.597656 165.753906 88.597656 C 166.359375 88.597656 166.816406 88.777344 167.117188 89.132813 C 167.417969 89.492188 167.566406 90.03125 167.566406 90.75 L 167.566406 94.460938 L 166.628906 94.460938 L 166.628906 90.945313 C 166.628906 90.375 166.535156 89.960938 166.347656 89.703125 C 166.160156 89.449219 165.859375 89.324219 165.4375 89.324219 C 164.949219 89.324219 164.554688 89.496094 164.257813 89.839844 C 163.964844 90.1875 163.816406 90.648438 163.816406 91.226563 L 163.816406 94.460938 L 162.875 94.460938 Z M 169.609375 88.769531 L 170.574219 88.769531 L 170.574219 94.460938 L 169.609375 94.460938 Z M 169.609375 86.378906 L 170.574219 86.378906 L 170.574219 87.589844 L 169.609375 87.589844 Z M 175.835938 91.082031 C 175.554688 91.21875 175.1875 91.339844 174.738281 91.441406 C 174.289063 91.542969 173.996094 91.621094 173.867188 91.667969 C 173.605469 91.765625 173.410156 91.90625 173.277344 92.09375 C 173.144531 92.28125 173.078125 92.511719 173.078125 92.792969 C 173.078125 93.136719 173.175781 93.402344 173.363281 93.589844 C 173.558594 93.777344 173.828125 93.871094 174.179688 93.871094 C 174.664063 93.871094 175.058594 93.726563 175.371094 93.4375 C 175.679688 93.144531 175.835938 92.765625 175.835938 92.304688 Z M 176.773438 90.597656 L 176.773438 93.007813 C 176.773438 93.335938 176.808594 93.550781 176.878906 93.652344 C 176.945313 93.757813 177.070313 93.8125 177.25 93.8125 C 177.292969 93.8125 177.324219 93.808594 177.351563 93.808594 C 177.378906 93.804688 177.398438 93.804688 177.417969 93.800781 L 177.417969 94.503906 C 177.316406 94.542969 177.222656 94.566406 177.128906 94.585938 C 177.039063 94.601563 176.945313 94.609375 176.851563 94.609375 C 176.550781 94.609375 176.316406 94.523438 176.148438 94.351563 C 175.984375 94.179688 175.890625 93.921875 175.867188 93.585938 C 175.574219 93.941406 175.277344 94.207031 174.976563 94.371094 C 174.675781 94.539063 174.34375 94.621094 173.984375 94.621094 C 173.429688 94.621094 172.984375 94.457031 172.648438 94.132813 C 172.3125 93.808594 172.148438 93.378906 172.148438 92.835938 C 172.148438 92.378906 172.28125 92 172.546875 91.699219 C 172.816406 91.398438 173.21875 91.179688 173.753906 91.039063 C 173.894531 91 174.105469 90.960938 174.382813 90.910156 C 175.039063 90.792969 175.523438 90.644531 175.835938 90.46875 C 175.839844 90.445313 175.839844 90.425781 175.84375 90.402344 C 175.84375 90.378906 175.84375 90.34375 175.84375 90.296875 C 175.84375 89.976563 175.742188 89.730469 175.535156 89.554688 C 175.335938 89.378906 175.050781 89.289063 174.6875 89.289063 C 174.3125 89.289063 173.996094 89.367188 173.738281 89.519531 C 173.480469 89.671875 173.265625 89.914063 173.089844 90.242188 L 172.386719 89.871094 C 172.632813 89.429688 172.945313 89.109375 173.328125 88.910156 C 173.707031 88.710938 174.1875 88.609375 174.765625 88.609375 C 175.460938 88.609375 175.96875 88.769531 176.289063 89.085938 C 176.613281 89.402344 176.773438 89.90625 176.773438 90.597656 "/>
<path style=" stroke:none;fill-rule:evenodd;fill:rgb(13.699341%,12.199402%,12.5%);fill-opacity:1;" d="M 21.5625 54.292969 L 21.5625 40.691406 L 19.335938 40.691406 L 19.335938 37.546875 L 21.5625 37.546875 C 21.535156 37.199219 21.519531 36.945313 21.515625 36.78125 C 21.511719 36.621094 21.503906 36.480469 21.503906 36.347656 C 21.503906 34.53125 21.878906 33.222656 22.628906 32.414063 C 23.375 31.613281 24.601563 31.210938 26.304688 31.210938 C 26.679688 31.210938 27.058594 31.238281 27.449219 31.292969 C 27.835938 31.339844 28.238281 31.429688 28.660156 31.546875 L 28.660156 35.140625 L 27.929688 35.140625 C 27.121094 35.140625 26.589844 35.253906 26.335938 35.488281 C 26.074219 35.722656 25.945313 36.191406 25.945313 36.894531 L 25.945313 37.546875 L 28.660156 37.546875 L 28.660156 40.691406 L 25.945313 40.691406 L 25.945313 54.292969 Z M 38.472656 46.085938 C 38.265625 46.152344 37.96875 46.234375 37.578125 46.34375 C 34.707031 47.144531 33.273438 48.148438 33.273438 49.363281 C 33.273438 49.960938 33.449219 50.429688 33.796875 50.78125 C 34.148438 51.121094 34.625 51.296875 35.226563 51.296875 C 36.242188 51.296875 37.035156 50.925781 37.609375 50.179688 C 38.183594 49.433594 38.472656 48.394531 38.472656 47.0625 Z M 38.824219 52.398438 C 38.246094 53.226563 37.574219 53.84375 36.804688 54.25 C 36.03125 54.652344 35.152344 54.855469 34.160156 54.855469 C 32.65625 54.855469 31.445313 54.386719 30.542969 53.449219 C 29.636719 52.511719 29.1875 51.28125 29.1875 49.742188 C 29.1875 48.566406 29.460938 47.53125 30.011719 46.636719 C 30.566406 45.75 31.359375 45.078125 32.394531 44.621094 C 33.121094 44.300781 34.445313 43.925781 36.367188 43.488281 C 37.28125 43.277344 37.984375 43.101563 38.472656 42.976563 L 38.472656 42.222656 C 38.472656 41.375 38.308594 40.765625 37.980469 40.398438 C 37.648438 40.03125 37.101563 39.847656 36.347656 39.847656 C 35.589844 39.847656 35.03125 40.023438 34.664063 40.375 C 34.304688 40.726563 34.105469 41.277344 34.078125 42.03125 L 29.792969 42.03125 L 29.792969 41.96875 C 29.792969 40.257813 30.371094 38.925781 31.519531 37.984375 C 32.667969 37.042969 34.300781 36.574219 36.402344 36.574219 C 38.714844 36.574219 40.363281 37.03125 41.359375 37.941406 C 42.355469 38.851563 42.855469 40.367188 42.855469 42.496094 L 42.855469 42.6875 L 42.773438 50.496094 L 42.773438 51.265625 C 42.773438 52.113281 42.808594 52.773438 42.875 53.230469 C 42.945313 53.695313 43.058594 54.046875 43.207031 54.292969 L 39.046875 54.292969 C 38.972656 54.046875 38.917969 53.789063 38.878906 53.515625 C 38.84375 53.238281 38.824219 52.953125 38.824219 52.671875 Z M 53.503906 50.769531 C 54.464844 50.769531 55.210938 50.304688 55.753906 49.382813 C 56.292969 48.464844 56.5625 47.175781 56.5625 45.53125 C 56.5625 43.890625 56.292969 42.617188 55.761719 41.707031 C 55.226563 40.796875 54.476563 40.339844 53.503906 40.339844 C 52.546875 40.339844 51.796875 40.796875 51.242188 41.710938 C 50.695313 42.628906 50.421875 43.902344 50.421875 45.53125 C 50.421875 47.171875 50.695313 48.453125 51.242188 49.378906 C 51.796875 50.304688 52.546875 50.769531 53.503906 50.769531 Z M 46.039063 60.042969 L 46.039063 37.132813 L 50.070313 37.132813 L 50.070313 38.757813 C 50.613281 38.078125 51.257813 37.570313 52 37.230469 C 52.738281 36.898438 53.589844 36.730469 54.546875 36.730469 C 56.550781 36.730469 58.121094 37.511719 59.273438 39.070313 C 60.414063 40.628906 60.988281 42.785156 60.988281 45.527344 C 60.988281 48.234375 60.390625 50.414063 59.195313 52.066406 C 57.996094 53.722656 56.429688 54.550781 54.496094 54.550781 C 53.667969 54.550781 52.917969 54.414063 52.246094 54.136719 C 51.574219 53.859375 50.964844 53.433594 50.421875 52.859375 L 50.421875 60.042969 Z M 67.019531 43.773438 L 72.894531 43.773438 C 72.78125 42.644531 72.46875 41.777344 71.964844 41.171875 C 71.453125 40.566406 70.785156 40.261719 69.949219 40.261719 C 69.121094 40.261719 68.457031 40.5625 67.957031 41.160156 C 67.453125 41.765625 67.140625 42.632813 67.019531 43.773438 Z M 66.992188 46.804688 C 67.03125 48.257813 67.332031 49.363281 67.898438 50.136719 C 68.46875 50.90625 69.265625 51.292969 70.300781 51.292969 C 71.078125 51.292969 71.765625 51.03125 72.359375 50.511719 C 72.949219 49.988281 73.445313 49.210938 73.847656 48.179688 L 77.105469 50.015625 C 76.417969 51.613281 75.457031 52.824219 74.210938 53.644531 C 72.964844 54.46875 71.476563 54.882813 69.753906 54.882813 C 67.554688 54.882813 65.8125 54.085938 64.523438 52.496094 C 63.238281 50.90625 62.59375 48.757813 62.59375 46.054688 C 62.59375 43.214844 63.277344 40.925781 64.644531 39.199219 C 66.011719 37.472656 67.804688 36.605469 70.023438 36.605469 C 72.230469 36.605469 73.976563 37.441406 75.269531 39.113281 C 76.5625 40.785156 77.207031 43.070313 77.207031 45.960938 C 77.207031 46.042969 77.199219 46.183594 77.183594 46.375 C 77.167969 46.566406 77.164063 46.707031 77.164063 46.804688 Z M 81.296875 48.636719 C 81.914063 49.460938 82.605469 50.070313 83.359375 50.472656 C 84.113281 50.882813 84.960938 51.085938 85.890625 51.085938 C 86.601563 51.085938 87.164063 50.9375 87.578125 50.644531 C 87.992188 50.355469 88.199219 49.957031 88.199219 49.457031 C 88.199219 49.199219 88.109375 48.949219 87.9375 48.699219 C 87.765625 48.449219 87.554688 48.277344 87.3125 48.179688 C 86.980469 48.042969 86.414063 47.890625 85.601563 47.734375 C 84.789063 47.574219 84.160156 47.417969 83.71875 47.269531 C 82.203125 46.769531 81.132813 46.160156 80.492188 45.4375 C 79.851563 44.726563 79.535156 43.773438 79.535156 42.589844 C 79.535156 40.710938 80.117188 39.226563 81.277344 38.152344 C 82.433594 37.078125 84.023438 36.539063 86.027344 36.539063 C 87.199219 36.539063 88.285156 36.742188 89.292969 37.140625 C 90.304688 37.539063 91.242188 38.140625 92.117188 38.949219 L 89.636719 42 C 89.007813 41.40625 88.359375 40.953125 87.707031 40.648438 C 87.046875 40.347656 86.390625 40.195313 85.71875 40.195313 C 85.175781 40.195313 84.738281 40.339844 84.417969 40.621094 C 84.09375 40.898438 83.929688 41.277344 83.929688 41.742188 C 83.929688 42.449219 84.734375 43.003906 86.339844 43.40625 C 86.648438 43.488281 86.894531 43.554688 87.070313 43.597656 C 89.371094 44.214844 90.882813 44.890625 91.59375 45.625 C 92.308594 46.359375 92.664063 47.4375 92.664063 48.867188 C 92.664063 50.699219 92.027344 52.15625 90.742188 53.246094 C 89.460938 54.339844 87.726563 54.882813 85.539063 54.882813 C 83.894531 54.882813 82.488281 54.578125 81.324219 53.972656 C 80.160156 53.367188 79.261719 52.472656 78.621094 51.292969 Z M 105.742188 45.722656 C 105.742188 44.082031 105.476563 42.808594 104.941406 41.898438 C 104.40625 40.988281 103.65625 40.527344 102.683594 40.527344 C 101.726563 40.527344 100.976563 40.992188 100.425781 41.914063 C 99.875 42.835938 99.601563 44.105469 99.601563 45.722656 C 99.601563 47.355469 99.875 48.636719 100.417969 49.554688 C 100.964844 50.46875 101.71875 50.925781 102.683594 50.925781 C 103.65625 50.925781 104.40625 50.46875 104.941406 49.558594 C 105.476563 48.648438 105.742188 47.367188 105.742188 45.722656 Z M 95.21875 31.210938 L 99.601563 31.210938 L 99.601563 38.402344 C 100.136719 37.84375 100.742188 37.421875 101.421875 37.144531 C 102.09375 36.867188 102.847656 36.730469 103.675781 36.730469 C 105.609375 36.730469 107.175781 37.554688 108.375 39.207031 C 109.570313 40.855469 110.167969 43.023438 110.167969 45.722656 C 110.167969 48.46875 109.597656 50.621094 108.453125 52.179688 C 107.300781 53.738281 105.730469 54.519531 103.730469 54.519531 C 102.769531 54.519531 101.921875 54.347656 101.179688 54.015625 C 100.4375 53.679688 99.792969 53.171875 99.25 52.492188 L 99.25 54.292969 L 95.21875 54.292969 L 95.21875 31.210938 "/>
<path style=" stroke:none;fill-rule:evenodd;fill:rgb(0%,68.199158%,93.699646%);fill-opacity:1;" d="M 120.226563 53.835938 L 120.175781 49.292969 L 134.917969 57.832031 L 135.226563 40.609375 L 144.171875 25.78125 L 148.128906 28.074219 L 139.914063 42.410156 L 139.460938 64.453125 L 120.226563 53.835938 "/>
<path style=" stroke:none;fill-rule:evenodd;fill:rgb(0%,68.199158%,93.699646%);fill-opacity:1;" d="M 120.566406 45.558594 L 120.515625 41.023438 L 127.304688 45.347656 L 127.542969 36.253906 L 136.53125 21.351563 L 140.484375 23.644531 L 132.230469 38.054688 L 131.847656 51.96875 L 120.566406 45.558594 "/>
<path style=" stroke:none;fill-rule:evenodd;fill:rgb(0%,68.199158%,93.699646%);fill-opacity:1;" d="M 120.066406 37.011719 L 120.199219 31.882813 L 129.136719 17.070313 L 133.089844 19.359375 L 124.890625 33.679688 L 124.734375 39.363281 L 120.066406 37.011719 "/>
<path style=" stroke:none;fill-rule:evenodd;fill:rgb(0%,68.199158%,93.699646%);fill-opacity:1;" d="M 163.964844 12.414063 L 168.386719 15.015625 L 177.082031 30.121094 L 173.09375 32.347656 L 164.542969 18.246094 L 159.640625 15.355469 L 163.964844 12.414063 "/>
<path style=" stroke:none;fill-rule:evenodd;fill:rgb(0%,68.199158%,93.699646%);fill-opacity:1;" d="M 156.238281 8.710938 L 160.234375 10.863281 L 153.164063 14.707031 L 161.003906 19.320313 L 169.621094 34.289063 L 165.632813 36.519531 L 157.160156 22.550781 L 145.167969 15.476563 L 156.238281 8.710938 "/>
<path style=" stroke:none;fill-rule:evenodd;fill:rgb(0%,68.199158%,93.699646%);fill-opacity:1;" d="M 149.164063 4.40625 L 153.164063 6.558594 L 138.554688 15.324219 L 153.472656 23.933594 L 161.925781 38.617188 L 157.929688 40.855469 L 149.628906 27.164063 L 130.5625 16.09375 L 149.164063 4.40625 "/>
<path style=" stroke:none;fill-rule:evenodd;fill:rgb(0%,68.199158%,93.699646%);fill-opacity:1;" d="M 177.90625 54.15625 L 174.019531 56.5 L 173.929688 39.464844 L 158.914063 47.90625 L 141.921875 47.6875 L 142.019531 43.109375 L 158.097656 42.949219 L 177.34375 32.195313 L 177.90625 54.15625 "/>
<path style=" stroke:none;fill-rule:evenodd;fill:rgb(0%,68.199158%,93.699646%);fill-opacity:1;" d="M 170.597656 58.046875 L 166.707031 60.390625 L 167.007813 52.34375 L 159.039063 56.738281 L 141.734375 56.519531 L 141.832031 51.945313 L 158.222656 51.785156 L 170.421875 45.074219 L 170.597656 58.046875 "/>
<path style=" stroke:none;fill-rule:evenodd;fill:rgb(0%,68.199158%,93.699646%);fill-opacity:1;" d="M 163.476563 62.800781 L 158.980469 65.28125 L 141.554688 65.058594 L 141.652344 60.492188 L 158.164063 60.328125 L 163.148438 57.585938 L 163.476563 62.800781 "/>
</g>
</svg>
