<svg width="60" height="60" viewBox="0 0 60 60" fill="none" xmlns="http://www.w3.org/2000/svg">
<path d="M50.4503 25.475C48.6521 25.1496 46.8277 24.9906 45.0003 25C43.9503 25 42.9253 25 41.9003 25.2C40.6243 23.4972 38.9955 22.0901 37.1253 21.075C38.7317 19.3206 39.6235 17.0287 39.6253 14.65C39.6253 12.0907 38.6086 9.63615 36.7989 7.82642C34.9892 6.01669 32.5347 5 29.9753 5C27.416 5 24.9615 6.01669 23.1518 7.82642C21.342 9.63615 20.3253 12.0907 20.3253 14.65C20.3272 17.0287 21.219 19.3206 22.8253 21.075C20.9663 22.0954 19.3401 23.4917 18.0503 25.175C17.0753 25 16.0503 25 15.0003 25C13.1714 25.0071 11.347 25.1828 9.55033 25.525C8.96794 25.6315 8.44224 25.9412 8.06683 26.399C7.69142 26.8568 7.49068 27.433 7.50033 28.025V48.65C7.49974 49.0173 7.58007 49.3802 7.73562 49.7129C7.89118 50.0456 8.11813 50.3399 8.40033 50.575C8.68076 50.8115 9.00979 50.9833 9.36407 51.0784C9.71835 51.1734 10.0892 51.1893 10.4503 51.125C11.9464 50.7992 13.4698 50.615 15.0003 50.575C19.8431 50.5697 24.5807 51.9867 28.6253 54.65V54.65L28.9503 54.775C29.2819 54.9189 29.6389 54.9954 30.0003 55C30.2389 54.997 30.4754 54.9548 30.7003 54.875H30.8753L31.2003 54.75C35.2834 52.0183 40.0877 50.5648 45.0003 50.575C46.5277 50.5821 48.0511 50.7328 49.5503 51.025C49.9115 51.0893 50.2823 51.0734 50.6366 50.9784C50.9909 50.8833 51.3199 50.7115 51.6003 50.475C51.8825 50.2399 52.1095 49.9456 52.265 49.6129C52.4206 49.2802 52.5009 48.9173 52.5003 48.55V27.925C52.4982 27.3416 52.2921 26.7773 51.9177 26.3299C51.5433 25.8824 51.0242 25.58 50.4503 25.475V25.475ZM30.0003 10C31.1715 10.086 32.2667 10.612 33.066 11.4722C33.8653 12.3324 34.3096 13.4632 34.3096 14.6375C34.3096 15.8118 33.8653 16.9426 33.066 17.8028C32.2667 18.663 31.1715 19.189 30.0003 19.275V19.275C28.8292 19.189 27.734 18.663 26.9347 17.8028C26.1353 16.9426 25.6911 15.8118 25.6911 14.6375C25.6911 13.4632 26.1353 12.3324 26.9347 11.4722C27.734 10.612 28.8292 10.086 30.0003 10V10ZM27.5003 48.325C23.582 46.5138 19.317 45.5755 15.0003 45.575C14.1753 45.575 13.3503 45.575 12.5003 45.7V30C14.5967 29.7655 16.7149 29.8075 18.8003 30.125H19.0753C22.0543 30.6725 24.909 31.7568 27.5003 33.325V48.325ZM30.0003 29C28.8886 28.3587 27.7362 27.7908 26.5503 27.3H26.4003C25.5753 26.975 24.7503 26.65 23.9003 26.4C25.6361 25.0184 27.782 24.2533 30.0003 24.225V24.225C32.2128 24.239 34.3581 24.9864 36.1003 26.35C33.9781 27.0126 31.933 27.901 30.0003 29V29ZM47.5003 45.7C42.367 45.1842 37.1889 46.0472 32.5003 48.2V33.2C35.0963 31.672 37.9528 30.6379 40.9253 30.15H41.4253C43.4353 29.837 45.4774 29.7866 47.5003 30V45.7Z" fill="#E72B45"/>
</svg>
